<svg xmlns="http://www.w3.org/2000/svg" viewBox="0 0 900 520" role="img" aria-labelledby="title desc">
  <title id="title">Savings Tracker</title>
  <desc id="desc">A cute savings tracker with coins, money, and a jar progress graphic.</desc>
  <rect width="900" height="520" fill="#f0fdf4"/>
  <rect x="70" y="58" width="760" height="404" rx="32" fill="#ffffff" stroke="#bbf7d0" stroke-width="4"/>
  <text x="112" y="126" fill="#14532d" font-family="Nunito, Arial, sans-serif" font-size="46" font-weight="800">Savings Tracker</text>
  <text x="116" y="164" fill="#64748b" font-family="Nunito, Arial, sans-serif" font-size="22" font-weight="700">college fund goal</text>
  <rect x="112" y="212" width="410" height="38" rx="19" fill="#dcfce7"/>
  <rect x="112" y="212" width="292" height="38" rx="19" fill="#86efac"/>
  <text x="112" y="294" fill="#374151" font-family="Nunito, Arial, sans-serif" font-size="28" font-weight="800">$348 saved</text>
  <text x="112" y="334" fill="#667085" font-family="Nunito, Arial, sans-serif" font-size="23" font-weight="700">Goal: $500</text>
  <g transform="translate(610 176)">
    <rect x="28" y="74" width="142" height="162" rx="38" fill="#dbeafe" stroke="#93c5fd" stroke-width="8"/>
    <rect x="46" y="112" width="106" height="106" rx="28" fill="#bfdbfe"/>
    <rect x="54" y="44" width="90" height="36" rx="14" fill="#64748b"/>
    <circle cx="72" cy="178" r="19" fill="#facc15"/>
    <circle cx="112" cy="162" r="19" fill="#fde68a"/>
    <circle cx="126" cy="198" r="19" fill="#f59e0b"/>
    <text x="99" y="170" text-anchor="middle" fill="#0f172a" font-family="Nunito, Arial, sans-serif" font-size="30" font-weight="800">$</text>
  </g>
  <g fill="#facc15">
    <circle cx="698" cy="98" r="18"/>
    <circle cx="758" cy="124" r="15"/>
    <circle cx="574" cy="110" r="13"/>
  </g>
  <g fill="#86efac" opacity="0.9">
    <rect x="542" y="78" width="56" height="34" rx="8" transform="rotate(-14 570 95)"/>
    <rect x="748" y="80" width="56" height="34" rx="8" transform="rotate(14 776 97)"/>
  </g>
</svg>
