<svg xmlns="http://www.w3.org/2000/svg" viewBox="0 0 900 520" role="img" aria-labelledby="title desc">
  <title id="title">Cute Checklist Template</title>
  <desc id="desc">A pink to-do list template with numbered tasks and a glitter-style border.</desc>
  <rect width="900" height="520" fill="#fffbeb"/>
  <rect x="98" y="54" width="704" height="412" rx="32" fill="#fdf2f8" stroke="#f9a8d4" stroke-width="7" stroke-dasharray="12 12"/>
  <rect x="148" y="98" width="604" height="324" rx="28" fill="#ffffff"/>
  <text x="450" y="156" text-anchor="middle" fill="#be185d" font-family="Nunito, Arial, sans-serif" font-size="50" font-weight="800">Today's Tiny To-Do</text>
  <g font-family="Nunito, Arial, sans-serif" font-size="28" font-weight="800">
    <circle cx="210" cy="220" r="22" fill="#f9a8d4"/>
    <text x="210" y="230" text-anchor="middle" fill="#ffffff">1</text>
    <rect x="254" y="202" width="396" height="36" rx="18" fill="#fce7f3"/>
    <circle cx="210" cy="284" r="22" fill="#c4b5fd"/>
    <text x="210" y="294" text-anchor="middle" fill="#ffffff">2</text>
    <rect x="254" y="266" width="334" height="36" rx="18" fill="#ede9fe"/>
    <circle cx="210" cy="348" r="22" fill="#93c5fd"/>
    <text x="210" y="358" text-anchor="middle" fill="#ffffff">3</text>
    <rect x="254" y="330" width="440" height="36" rx="18" fill="#dbeafe"/>
  </g>
  <g fill="#facc15">
    <path d="m150 78 8 18 18 8-18 8-8 18-8-18-18-8 18-8Z"/>
    <path d="m734 86 7 15 15 7-15 7-7 15-7-15-15-7 15-7Z"/>
    <path d="m756 390 9 20 20 9-20 9-9 20-9-20-20-9 20-9Z"/>
  </g>
</svg>
