<svg xmlns="http://www.w3.org/2000/svg" viewBox="0 0 256 256" role="img" aria-labelledby="title desc">
  <title id="title">Cute pixel art green tech mascot</title>
  <desc id="desc">A small friendly green mascot waving beside a laptop.</desc>
  <rect width="256" height="256" rx="48" fill="#f0fdf4"/>
  <rect x="58" y="70" width="140" height="128" rx="34" fill="#86efac"/>
  <rect x="74" y="88" width="108" height="78" rx="24" fill="#bbf7d0"/>
  <rect x="84" y="108" width="22" height="22" rx="8" fill="#111827"/>
  <rect x="150" y="108" width="22" height="22" rx="8" fill="#111827"/>
  <rect x="104" y="142" width="48" height="12" rx="6" fill="#16a34a"/>
  <rect x="42" y="104" width="28" height="54" rx="14" fill="#86efac"/>
  <rect x="186" y="88" width="28" height="68" rx="14" fill="#86efac"/>
  <rect x="204" y="70" width="14" height="42" rx="7" fill="#86efac" transform="rotate(34 211 91)"/>
  <rect x="206" y="62" width="26" height="12" rx="6" fill="#f9a8d4" transform="rotate(34 219 68)"/>
  <rect x="80" y="48" width="18" height="36" rx="9" fill="#86efac" transform="rotate(-28 89 66)"/>
  <rect x="156" y="48" width="18" height="36" rx="9" fill="#86efac" transform="rotate(28 165 66)"/>
  <path d="M87 45c-17-5-31 8-35 24 16 4 32-4 35-24Z" fill="#bbf7d0"/>
  <path d="M169 45c17-5 31 8 35 24-16 4-32-4-35-24Z" fill="#bbf7d0"/>
  <rect x="70" y="178" width="116" height="42" rx="8" fill="#dbeafe"/>
  <rect x="86" y="190" width="84" height="16" rx="4" fill="#93c5fd"/>
  <rect x="62" y="218" width="132" height="10" rx="5" fill="#64748b"/>
  <circle cx="64" cy="154" r="11" fill="#f9a8d4"/>
  <circle cx="192" cy="154" r="11" fill="#f9a8d4"/>
</svg>
