<svg xmlns="http://www.w3.org/2000/svg" viewBox="0 0 900 520" role="img" aria-labelledby="title desc">
  <title id="title">Garden Party Flyer</title>
  <desc id="desc">A pastel garden party flyer with hanging plants and a city skyline.</desc>
  <rect width="900" height="520" fill="#ecfeff"/>
  <rect x="80" y="52" width="740" height="416" rx="28" fill="#ffffff" stroke="#bae6fd" stroke-width="4"/>
  <path d="M80 360h740v108H80z" fill="#dbeafe"/>
  <g fill="#60a5fa">
    <rect x="118" y="302" width="42" height="110" rx="6"/>
    <rect x="176" y="272" width="54" height="140" rx="6"/>
    <rect x="250" y="322" width="40" height="90" rx="6"/>
    <rect x="640" y="290" width="52" height="122" rx="6"/>
    <rect x="708" y="250" width="58" height="162" rx="6"/>
  </g>
  <g stroke="#86efac" stroke-width="5" stroke-linecap="round">
    <path d="M168 52v70M260 52v90M642 52v82M728 52v76"/>
  </g>
  <g>
    <circle cx="168" cy="144" r="34" fill="#bbf7d0"/>
    <circle cx="260" cy="164" r="42" fill="#dcfce7"/>
    <circle cx="642" cy="154" r="38" fill="#bbf7d0"/>
    <circle cx="728" cy="150" r="32" fill="#dcfce7"/>
    <path d="M146 148c26-6 42-23 46-50" fill="none" stroke="#22c55e" stroke-width="5"/>
    <path d="M238 166c30-5 48-28 52-62" fill="none" stroke="#22c55e" stroke-width="5"/>
    <path d="M620 154c28-4 46-26 50-58" fill="none" stroke="#22c55e" stroke-width="5"/>
    <path d="M708 152c24-3 38-20 42-48" fill="none" stroke="#22c55e" stroke-width="5"/>
  </g>
  <text x="450" y="168" text-anchor="middle" fill="#14532d" font-family="Georgia, serif" font-size="44" font-weight="700">Bridgerton Heights</text>
  <text x="450" y="226" text-anchor="middle" fill="#db2777" font-family="Nunito, Arial, sans-serif" font-size="56" font-weight="800">Garden Party</text>
  <text x="450" y="282" text-anchor="middle" fill="#475569" font-family="Nunito, Arial, sans-serif" font-size="26" font-weight="700">Saturday · 2 PM · Rooftop Garden</text>
  <rect x="310" y="326" width="280" height="54" rx="27" fill="#fce7f3"/>
  <text x="450" y="361" text-anchor="middle" fill="#9d174d" font-family="Nunito, Arial, sans-serif" font-size="24" font-weight="800">RSVP by Friday</text>
</svg>
